REM DIRINDEX 1\5,1\2\6,1\2\7,1\3\8,1\3\9,1\4\10,1\4\11,1\4\12
REM DIRNAME cjc026,folder01,folder02,folder03,folder04,folder05,folder06,folder07,folder08,folder09,folder10,folder11
TITLE ""
FILE "JE_DB3000_5th_6C_47.mp3" MP3
  TRACK 01 AUDIO
    TITLE "0:"
    INDEX 01 00:00:00
  TRACK 02 AUDIO
    TITLE "6:cjc026_03329"
    INDEX 01 00:00:08
  TRACK 03 AUDIO
    TITLE "0:"
    INDEX 01 00:01:57
  TRACK 04 AUDIO
    TITLE "7:cjc026_03330"
    INDEX 01 00:02:14
  TRACK 05 AUDIO
    TITLE "0:"
    INDEX 01 00:04:07
  TRACK 06 AUDIO
    TITLE "6:cjc026_03331"
    INDEX 01 00:04:40
  TRACK 07 AUDIO
    TITLE "0:"
    INDEX 01 00:06:41
  TRACK 08 AUDIO
    TITLE "7:cjc026_03332"
    INDEX 01 00:07:01
  TRACK 09 AUDIO
    TITLE "0:"
    INDEX 01 00:09:35
  TRACK 10 AUDIO
    TITLE "6:cjc026_03333"
    INDEX 01 00:09:67
  TRACK 11 AUDIO
    TITLE "0:"
    INDEX 01 00:12:04
  TRACK 12 AUDIO
    TITLE "7:cjc026_03334"
    INDEX 01 00:12:42
  TRACK 13 AUDIO
    TITLE "0:"
    INDEX 01 00:13:69
  TRACK 14 AUDIO
    TITLE "6:cjc026_03335"
    INDEX 01 00:14:27
  TRACK 15 AUDIO
    TITLE "0:"
    INDEX 01 00:15:73
  TRACK 16 AUDIO
    TITLE "7:cjc026_03336"
    INDEX 01 00:16:33
  TRACK 17 AUDIO
    TITLE "0:"
    INDEX 01 00:17:64
  TRACK 18 AUDIO
    TITLE "6:cjc026_03337"
    INDEX 01 00:18:24
  TRACK 19 AUDIO
    TITLE "0:"
    INDEX 01 00:19:60
  TRACK 20 AUDIO
    TITLE "7:cjc026_03338"
    INDEX 01 00:20:17
  TRACK 21 AUDIO
    TITLE "0:"
    INDEX 01 00:21:58
  TRACK 22 AUDIO
    TITLE "6:cjc026_03339"
    INDEX 01 00:22:15
  TRACK 23 AUDIO
    TITLE "0:"
    INDEX 01 00:23:48
  TRACK 24 AUDIO
    TITLE "7:cjc026_03340"
    INDEX 01 00:24:06
  TRACK 25 AUDIO
    TITLE "0:"
    INDEX 01 00:25:31
  TRACK 26 AUDIO
    TITLE "6:cjc026_03341"
    INDEX 01 00:25:63
  TRACK 27 AUDIO
    TITLE "0:"
    INDEX 01 00:27:43
  TRACK 28 AUDIO
    TITLE "7:cjc026_03342"
    INDEX 01 00:28:00
  TRACK 29 AUDIO
    TITLE "0:"
    INDEX 01 00:29:25
  TRACK 30 AUDIO
    TITLE "6:cjc026_03343"
    INDEX 01 00:29:60
  TRACK 31 AUDIO
    TITLE "0:"
    INDEX 01 00:31:26
  TRACK 32 AUDIO
    TITLE "7:cjc026_03344"
    INDEX 01 00:31:59
  TRACK 33 AUDIO
    TITLE "0:"
    INDEX 01 00:33:38
  TRACK 34 AUDIO
    TITLE "6:cjc026_03345"
    INDEX 01 00:33:71
  TRACK 35 AUDIO
    TITLE "0:"
    INDEX 01 00:35:50
  TRACK 36 AUDIO
    TITLE "7:cjc026_03346"
    INDEX 01 00:36:10
  TRACK 37 AUDIO
    TITLE "0:"
    INDEX 01 00:37:51
  TRACK 38 AUDIO
    TITLE "6:cjc026_03347"
    INDEX 01 00:38:09
  TRACK 39 AUDIO
    TITLE "0:"
    INDEX 01 00:39:55
  TRACK 40 AUDIO
    TITLE "7:cjc026_03348"
    INDEX 01 00:40:13
  TRACK 41 AUDIO
    TITLE "0:"
    INDEX 01 00:41:46
  TRACK 42 AUDIO
    TITLE "6:cjc026_03349"
    INDEX 01 00:42:03
  TRACK 43 AUDIO
    TITLE "0:"
    INDEX 01 00:43:39
  TRACK 44 AUDIO
    TITLE "7:cjc026_03350"
    INDEX 01 00:43:71
  TRACK 45 AUDIO
    TITLE "0:"
    INDEX 01 00:45:02
  TRACK 46 AUDIO
    TITLE "6:cjc026_03351"
    INDEX 01 00:45:37
  TRACK 47 AUDIO
    TITLE "0:"
    INDEX 01 00:46:60
  TRACK 48 AUDIO
    TITLE "7:cjc026_03352"
    INDEX 01 00:47:14
  TRACK 49 AUDIO
    TITLE "0:"
    INDEX 01 00:48:58
  TRACK 50 AUDIO
    TITLE "6:cjc026_03353"
    INDEX 01 00:49:13
  TRACK 51 AUDIO
    TITLE "0:"
    INDEX 01 00:51:14
  TRACK 52 AUDIO
    TITLE "7:cjc026_03354"
    INDEX 01 00:51:49
  TRACK 53 AUDIO
    TITLE "0:"
    INDEX 01 00:53:26
  TRACK 54 AUDIO
    TITLE "6:cjc026_03355"
    INDEX 01 00:53:58
  TRACK 55 AUDIO
    TITLE "0:"
    INDEX 01 00:55:08
  TRACK 56 AUDIO
    TITLE "7:cjc026_03356"
    INDEX 01 00:55:38
  TRACK 57 AUDIO
    TITLE "0:"
    INDEX 01 00:57:04
  TRACK 58 AUDIO
    TITLE "6:cjc026_03357"
    INDEX 01 00:57:39
  TRACK 59 AUDIO
    TITLE "0:"
    INDEX 01 00:58:59
  TRACK 60 AUDIO
    TITLE "7:cjc026_03358"
    INDEX 01 00:59:19
  TRACK 61 AUDIO
    TITLE "0:"
    INDEX 01 01:00:36
  TRACK 62 AUDIO
    TITLE "6:cjc026_03359"
    INDEX 01 01:00:71
  TRACK 63 AUDIO
    TITLE "0:"
    INDEX 01 01:02:34
  TRACK 64 AUDIO
    TITLE "7:cjc026_03360"
    INDEX 01 01:02:66
  TRACK 65 AUDIO
    TITLE "0:"
    INDEX 01 01:04:27
